# xmcd
#
# Track frame offsets:
#	150
#	11603
#	22820
#	37926
#	48171
#	57483
#	73513
#	87931
#	104036
#	116026
#
# Disc length: 1720 seconds
#
# Revision: 2
# Processed by: cddbd v1.5.2PL0 Copyright (c) Steve Scherf et al.
# Submitted via: audiograbber 1.82.02
#
DISCID=7c06b60a
DTITLE=Various Artist - Midnight Soul [CD3]
DYEAR=2003
DGENRE=Soul
TTITLE0=Jimmy Charles - A Million To One
TTITLE1=The Chimes - I'm In The Mood For Love
TTITLE2=William DeVaughn - Be Thankful For What You've Got
TTITLE3=Don and Juan - What's Your Name
TTITLE4=Gladys Knight and The Piips - Every Beat Of My Heart
TTITLE5=Luther Ingram - (If Loving You Is Wrong) I Don't Want To Be Right
TTITLE6=Patti Labelle and The Blue Belles - You'll Never Walk Alone
TTITLE7=Gloria Loring and Carl Anderson - Friends and Lovers
TTITLE8=Aaron Neville - Tell It Like It Is
TTITLE9=Lenny Welch - Since I Fell For You
EXTD=
EXTT0=
EXTT1=
EXTT2=
EXTT3=
EXTT4=
EXTT5=
EXTT6=
EXTT7=
EXTT8=
EXTT9=
PLAYORDER=
